<svg width="41" height="40" viewBox="0 0 41 40" fill="none" xmlns="http://www.w3.org/2000/svg">
<path d="M12.507 8.98586C12.348 8.66823 12.0841 8.39663 11.7474 8.20395C11.4107 8.01127 11.0156 7.90579 10.6098 7.90025H3.89418C3.71778 7.89173 3.54159 7.91978 3.38075 7.98198C3.21991 8.04419 3.07922 8.13869 2.97078 8.25736C2.88103 8.39245 2.83387 8.545 2.83387 8.70017C2.83387 8.85535 2.88103 9.00789 2.97078 9.14299L7.55421 15.8994L0.334888 26.7412C0.240109 26.8748 0.190018 27.028 0.190018 27.184C0.190018 27.3401 0.240109 27.4932 0.334888 27.6268C0.424967 27.7539 0.553513 27.8581 0.70709 27.9284C0.860667 27.9988 1.03364 28.0328 1.20792 28.0268H7.92356C8.32604 28.0161 8.71587 27.9047 9.04434 27.7065C9.37281 27.5084 9.62534 27.2322 9.77037 26.9126L17.0904 15.8994L12.507 8.98586Z" fill="black"/>
<path d="M40.0579 1.25806C40.1446 1.12212 40.19 0.969912 40.19 0.81525C40.19 0.660589 40.1446 0.508377 40.0579 0.372438C39.9587 0.251521 39.825 0.154017 39.6693 0.0890606C39.5137 0.0241041 39.3412 -0.00617961 39.1681 0.00104665H32.3181C31.9217 0.0105725 31.5376 0.120254 31.2147 0.316125C30.8918 0.511996 30.6447 0.785195 30.5049 1.10094C30.5049 1.10094 15.8984 23.1416 15.3947 23.8558L25.0317 38.8971C25.1887 39.2142 25.4493 39.4864 25.7826 39.6813C26.1159 39.8762 26.5078 39.9858 26.912 39.997H33.6277C33.804 40.0097 33.9811 39.9819 34.1405 39.9166C34.3 39.8512 34.4359 39.7508 34.5343 39.6256C34.6257 39.491 34.6738 39.3383 34.6738 39.1828C34.6738 39.0274 34.6257 38.8746 34.5343 38.74L24.9813 23.8844L40.0579 1.25806Z" fill="black"/>
</svg>
